<?xml version="1.0" encoding="UTF-8" standalone="no"?>
<!-- Created with Inkscape (http://www.inkscape.org/) -->

<svg
   version="1.1"
   id="svg2"
   width="196"
   height="59"
   viewBox="0 0 196 59"
   sodipodi:docname="vecteezy_a-black-and-white-raccoon-logo-on-a-white-background_50028935.eps"
   xmlns:inkscape="http://www.inkscape.org/namespaces/inkscape"
   xmlns:sodipodi="http://sodipodi.sourceforge.net/DTD/sodipodi-0.dtd"
   xmlns="http://www.w3.org/2000/svg"
   xmlns:svg="http://www.w3.org/2000/svg">
  <defs
     id="defs6" />
  <sodipodi:namedview
     id="namedview4"
     pagecolor="#ffffff"
     bordercolor="#000000"
     borderopacity="0.25"
     inkscape:showpageshadow="2"
     inkscape:pageopacity="0.0"
     inkscape:pagecheckerboard="0"
     inkscape:deskcolor="#d1d1d1" />
  <g
     id="g8"
     inkscape:groupmode="layer"
     inkscape:label="ink_ext_XXXXXX"
     transform="matrix(1.3333333,0,0,-1.3333333,0,2666.6667)">
    <g
       id="g10"
       transform="scale(0.1)">
      <path
         d="M 30000,0 H 0 V 20000 H 30000 V 0"
         style="fill:#ffffff;fill-opacity:1;fill-rule:nonzero;stroke:none"
         id="path12" />
      <path
         d="m 16230.1,10765.2 c -1.6,166.1 -138.5,310.1 -296.5,311.6 -158.4,1.4 -301.7,-135.1 -301.1,-287 0.7,-173.5 140.9,-319.9 305.6,-319 162.4,0.9 293.5,133.1 292,294.4 z m -4182.8,310 c -161.5,1.9 -287.6,-117.1 -290.8,-274.4 -3.6,-178 127.2,-326.2 292,-330.7 167.1,-4.6 293.1,115.4 298.3,284.1 5.4,175.6 -128.4,319 -299.5,321 z m -1989.9,2896.9 c 225.4,199.2 445.5,401.2 673.8,593.4 226.7,190.9 461.6,372.1 698,561.6 -511.4,801.4 -1204,1323.1 -2139.61,1529.1 -71.74,-1026.4 225.83,-1924.4 767.81,-2684.1 z m 6873.9,1190 c 459.2,-414.4 907.5,-819 1360.4,-1227.6 553.3,805.4 862.7,1701.9 771.3,2726 -931.9,-201.8 -1624,-730.5 -2131.7,-1498.4 z m 3341.6,-4766.8 c -321.8,283.1 -635.4,559.5 -949.4,835.5 -508.8,447.1 -1010.7,901.7 -1604.7,1240.6 -919.2,524.4 -1880,643.4 -2895.4,337.6 -101.8,-30.6 -103.5,-91.3 -106.1,-165 -23.1,-652.6 -45.1,-1305.2 -66.8,-1957.8 -2.4,-74.4 -0.3,-149 -0.3,-246.1 -314.3,99.1 -615.9,107.3 -940,-8.1 -10.7,266.4 -21.4,517.4 -30.7,768.5 -18,483.2 -38.8,966.3 -50.1,1449.6 -2.5,107.3 -42.1,136.6 -140.9,163.2 -450.7,121.1 -904.8,199.7 -1372.9,154.9 -704.2,-67.4 -1331.9,-344.4 -1889.5,-760.2 -498.15,-371.5 -963.14,-787.6 -1440.81,-1186.4 -240.15,-200.5 -475.96,-406.2 -715.74,-611.2 788.6,-564.3 1657.29,-506.6 2448.95,174.2 328.3,282.3 632.4,592.6 946.5,891.2 246.3,234.2 512.2,418.6 869.8,446.6 415.4,32.6 692.2,-114.9 817.4,-512.7 99.6,-316.6 159.2,-645.9 231.7,-970.6 21.2,-94.7 -8.6,-168.8 -79.5,-251.6 -377.8,-441.8 -771.3,-874.4 -999,-1423.1 -13,-31.3 -72.5,-56.1 -113.3,-61.2 -1323.1,-166.7 -2563.82,133.6 -3758.74,676.1 -577.66,262.3 -1116.31,593.1 -1623.6,974.3 -43.71,32.9 -84.73,69.4 -125.66,105.8 -17.89,15.8 -32.43,35.5 -59.42,65.7 832.92,477.4 1590.09,1039.9 2217.07,1762.7 234.6,270.4 458.54,550.1 693.44,832.9 -480.37,691.1 -855.14,1416.7 -1050.23,2227.7 -194.35,808.1 -145.04,1621.7 -85.49,2445.4 1259.09,-157 2407.13,-541.2 3301.83,-1479.3 211.7,-222.1 389.8,-477.6 570.6,-726.9 56.7,-78.1 94,-104.4 188,-69.7 571.4,210.8 1164.9,304.8 1772,300.6 575.9,-4 1141.2,-84 1681,-296.7 70.2,-27.7 108.3,-33.3 156.3,41.9 701.5,1097.3 1706.3,1761.2 2965,2054.4 298.4,69.5 600.8,122.1 918.2,185.8 12.9,-161.3 21.5,-293.9 34.3,-426.2 142.5,-1463 -183.5,-2805.8 -1015,-4024.9 -192.7,-282.4 -195.6,-170.5 25.9,-460.5 728,-953.3 1618.3,-1725.3 2651.4,-2333.6 21.2,-12.5 41.9,-25.8 73.2,-45.2 -476.2,-388.4 -972,-731.1 -1513.4,-1006.8 -833.4,-424.5 -1714.8,-706.8 -2641.9,-808 -466.9,-50.9 -944.3,-8 -1416.9,-1.9 -39.1,0.5 -98.1,35 -113.3,69 -235.8,531.2 -611.2,966.3 -970.8,1411.2 -67.6,83.7 -114.3,159 -90.2,265.6 75.8,334.2 140.4,671.7 232.5,1001.5 82.9,296.6 304.4,439.3 608.2,468.4 330.3,31.7 627,-51.5 873.1,-269.4 369,-326.6 721.2,-672.2 1089.7,-999.4 358.8,-318.5 756,-561.2 1253.5,-605.4 459.8,-41 859.3,98.9 1240.2,357"
         style="fill:#231f20;fill-opacity:1;fill-rule:nonzero;stroke:none"
         id="path14" />
      <path
         d="m 19211.5,8431.8 c 83.1,-309.7 162.2,-604.1 243.8,-907.8 93.2,58.2 188.3,119.9 285.6,177.9 325.1,193.5 652.2,383.7 975.5,580.2 77.1,46.8 120.8,52.1 181.9,-29.5 599.4,-800.4 1202.5,-1598 1807.1,-2394.5 100.2,-132.1 122.4,-250 55.5,-417.2 -292,-729.3 -673.1,-1405.5 -1142.1,-2043.5 -797.9,1296.3 -1589,2581.7 -2400,3899.3 -300.6,-287.6 -595.7,-539.4 -853.8,-824.7 -296.6,-327.9 -557.8,-687.6 -840.4,-1028.5 -66,-79.7 -61.4,-142.4 -15.7,-225.1 308.3,-557.5 614.1,-1116.3 919.9,-1675.1 238,-435.1 475,-870.8 722.3,-1324.4 -570.6,0 -1115,0 -1658,0 -171.3,922.5 -683.3,1397.7 -1504.6,1402.1 -883.6,4.8 -1415.9,-458.2 -1605.5,-1402.8 -210.8,0 -423.2,0 -650.7,0 -37.1,468 -243.9,846.2 -629.3,1116.3 -326.5,228.7 -694.3,310.2 -1090.7,284.7 -567.4,-36.5 -1335.4,-460.2 -1375.8,-1406.5 -242.7,0 -486.2,0.1 -729.66,-0.1 -523.44,-0.4 -1047.12,7.5 -1570.18,-6.8 -159.63,-4.3 -231.57,60.3 -295.05,186.3 -284.76,565.4 -391.94,1167.5 -378.81,1794.6 23.95,1144.1 396.51,2153.5 1158.21,3016.2 69.59,78.9 109.25,195.7 132.66,301.5 67.36,304.5 119.26,612.3 176.93,917.3 364.85,-112.1 698.03,-225.9 1037.5,-316.2 659,-175.1 1328.1,-266.5 2010.9,-177.8 98.2,12.8 143.8,-36.1 194,-101.6 749.8,-977.3 2316.3,-1167.9 3306.8,-305.8 115.6,100.6 208.4,227.2 319.2,334.1 36.9,35.6 99.4,71 146.2,66.4 1008.9,-99.8 1971.9,86.7 2907.1,454.5 41.3,16.2 83.7,29.8 159.2,56.5"
         style="fill:#231f20;fill-opacity:1;fill-rule:nonzero;stroke:none"
         id="path16" />
      <path
         d="m 13636.9,8591.2 c 22.4,-2.1 44.8,-4.1 67.3,-6.2 45.9,52.5 118.3,98.9 131.8,158.7 22.6,99.9 -48.8,182.8 -147.1,174.8 -57.7,-4.7 -147.8,-82 -153.4,-134.2 -6.5,-60 64.2,-128.4 101.4,-193.1 z m 561.5,591.7 c 84.6,0 169.7,5.4 253.9,-0.9 455.5,-34.4 649,-261.6 611.2,-713.4 -56.3,-672.5 -752.7,-1069.2 -1317,-748.3 -413.3,235.1 -509.4,718.3 -431.2,1077.3 44.4,203.5 209.6,312.2 408.1,349.9 155.7,29.6 315.6,37.3 473.6,54.8 0.5,-6.5 0.9,-13 1.4,-19.4"
         style="fill:#231f20;fill-opacity:1;fill-rule:nonzero;stroke:none"
         id="path18" />
      <path
         d="m 21687.7,8769.5 c 513.8,323.1 1011.7,636.2 1526.7,960 206.2,-845.9 216,-1678.2 19.2,-2555.9 -525.2,542.2 -1029.7,1063 -1545.9,1595.9"
         style="fill:#231f20;fill-opacity:1;fill-rule:nonzero;stroke:none"
         id="path20" />
      <path
         d="m 16361.9,2208.7 c -161.9,0 -309.6,0 -481,0 0,167.8 -9.4,330.6 3,491.7 10,129 137.7,217.1 269.7,201.7 132.5,-15.3 206.1,-92.5 207.9,-228.4 1.9,-152.8 0.4,-305.8 0.4,-465"
         style="fill:#231f20;fill-opacity:1;fill-rule:nonzero;stroke:none"
         id="path22" />
      <path
         d="m 13056.5,2208.6 c -163.9,0 -307,0 -474.2,0 0,173.3 -16.5,341.7 5.7,504.8 15.1,110.3 102.7,190.3 232.9,187.4 128.3,-2.9 224.2,-85.1 233.3,-222.6 10.1,-152.1 2.3,-305.5 2.3,-469.6"
         style="fill:#231f20;fill-opacity:1;fill-rule:nonzero;stroke:none"
         id="path24" />
      <path
         d="m 15506.4,2209.3 c -176.8,0 -314.9,0 -475.3,0 0,169.8 -8.3,332.4 2.7,493.8 8.3,120.5 121,203.7 238.5,199.5 123.2,-4.5 223.1,-92.9 231.8,-228 9.9,-152.5 2.3,-306.2 2.3,-465.3"
         style="fill:#231f20;fill-opacity:1;fill-rule:nonzero;stroke:none"
         id="path26" />
      <path
         d="m 11738,2211.6 c 0,180 -8.4,338.6 2.7,495.8 8.8,123.2 83.1,198.1 216.8,194.3 127.1,-3.7 230,-94.1 234.8,-219.9 5.9,-156.9 1.4,-314.1 1.4,-470.2 -157.9,0 -299.4,0 -455.7,0"
         style="fill:#231f20;fill-opacity:1;fill-rule:nonzero;stroke:none"
         id="path28" />
      <path
         d="m 7262.68,2200.7 c -24.72,0 -49.46,0.3 -74.17,-0.1 -89.3,-1.6 -186.5,-14.9 -218.47,100.9 -33.09,120 11.63,211.9 114.47,278.6 151.56,98.3 349.81,68.4 443.43,-83.1 33.65,-54.4 48.65,-144.5 27.14,-201.2 -16.7,-44 -100.96,-68.8 -159.78,-88.2 -40.11,-13.2 -88.13,-2.5 -132.62,-2.5 0,-1.5 0,-3 0,-4.4"
         style="fill:#231f20;fill-opacity:1;fill-rule:nonzero;stroke:none"
         id="path30" />
      <path
         d="m 11377.1,2196.1 c -141.5,6.6 -264.2,12.4 -384.9,18 -55.5,324.3 95.1,577.9 384.9,620.3 0,-104.6 0,-206.5 0,-308.4 0,-103.5 0,-207.1 0,-329.9"
         style="fill:#231f20;fill-opacity:1;fill-rule:nonzero;stroke:none"
         id="path32" />
      <path
         d="m 16738.1,2214.6 c 0,213.8 0,411 0,608 253,18.6 426.8,-246.3 398.2,-608 -126.3,0 -253.2,0 -398.2,0"
         style="fill:#231f20;fill-opacity:1;fill-rule:nonzero;stroke:none"
         id="path34" />
    </g>
  </g>
</svg>
